<svg width="512" height="512" viewBox="0 0 512 512" fill="none" xmlns="http://www.w3.org/2000/svg">
<g clip-path="url(#clip0_0_3)">
<path d="M79.8616 60.288L255.5 21.3333L431.138 60.288C435.885 61.3411 440.13 63.9779 443.173 67.7633C446.215 71.5487 447.874 76.2564 447.875 81.1093V294.165C447.873 315.237 442.66 335.982 432.696 354.56C422.733 373.138 408.328 388.974 390.761 400.661L255.5 490.667L120.239 400.661C102.675 388.976 88.2718 373.143 78.3087 354.57C68.3455 335.996 63.1301 315.255 63.125 294.187V81.1093C63.1258 76.2564 64.7845 71.5487 67.8273 67.7633C70.87 63.9779 75.115 61.3411 79.8616 60.288Z" fill="url(#paint0_linear_0_3)"/>
<g clip-path="url(#clip1_0_3)">
<path fill-rule="evenodd" clip-rule="evenodd" d="M205.815 136.189C202.865 135.123 199.706 134.765 196.592 135.143C193.478 135.52 190.496 136.624 187.886 138.365C185.276 140.105 183.111 142.435 181.566 145.165C180.021 147.894 179.138 150.949 178.989 154.083C177.877 168.692 177.049 191.394 179.661 214.886C182.247 238.26 188.323 263.251 201.614 281.778C215.383 301.727 235.047 310.596 253.328 314.061C271.48 317.487 288.649 315.677 298.423 314.009C301.126 313.58 303.745 312.725 306.18 311.475C291.584 272.405 264.188 229.43 223.67 192.105C222.093 190.653 221.157 188.634 221.068 186.492C220.98 184.35 221.746 182.26 223.198 180.683C224.65 179.106 226.669 178.17 228.811 178.082C230.954 177.993 233.043 178.759 234.62 180.211C274.337 216.799 302.198 258.765 318.307 298.12C323.103 289.264 329.102 275.921 331.727 260.549C334.843 242.32 333.278 220.923 319.096 200.962C305.999 182.474 284.279 168.291 262.96 157.832C241.615 147.36 219.908 140.249 205.815 136.189Z" fill="#0EC979"/>
</g>
</g>
<defs>
<linearGradient id="paint0_linear_0_3" x1="255.5" y1="21.3333" x2="255.5" y2="490.667" gradientUnits="userSpaceOnUse">
<stop stop-color="#2A6DDF"/>
<stop offset="1" stop-color="white"/>
</linearGradient>
<clipPath id="clip0_0_3">
<rect width="512" height="512" fill="white"/>
</clipPath>
<clipPath id="clip1_0_3">
<rect width="181" height="181" fill="white" transform="translate(165 135)"/>
</clipPath>
</defs>
</svg>
