<svg width="512" height="512" viewBox="0 0 512 512" fill="none" xmlns="http://www.w3.org/2000/svg">
<g clip-path="url(#clip0_19_38)">
<rect width="512" height="512" rx="50" fill="#E4D098"/>
<rect width="512" height="512" fill="#E4D098"/>
<path d="M307.356 56C312.247 56 316.323 57.4829 319.584 60.4487L380.722 112.787C384.187 115.579 385.919 119.068 385.919 123.255L385.919 398.295C385.919 402.656 383.372 404.837 378.277 404.837L291.766 404.837C286.671 404.837 284.124 402.656 284.124 398.295L284.124 131.106C284.124 127.617 282.086 125.872 278.01 125.872L227.876 125.872L227.876 398.295C227.876 402.656 225.329 404.837 220.234 404.837L133.723 404.837C128.628 404.837 126.081 402.656 126.081 398.295L126.081 62.5423C126.081 58.1807 128.628 56 133.723 56L307.356 56Z" fill="#786F1E"/>
<path d="M127.044 456C122.621 456 118.935 454.873 115.986 452.619L60.6994 412.842C57.5665 410.72 56 408.068 56 404.886V195.856C56 192.541 58.3036 190.884 62.9109 190.884H141.142C145.749 190.884 148.053 192.541 148.053 195.856V402.698H209.974V195.856C209.974 192.541 212.277 190.884 216.885 190.884H295.115C299.723 190.884 302.026 192.541 302.026 195.856V402.698H363.671V195.856C363.671 192.541 365.975 190.884 370.582 190.884H449.089C453.696 190.884 456 192.541 456 195.856V404.886C456 408.068 454.434 410.72 451.301 412.842L396.014 452.619C392.881 454.873 389.195 456 384.956 456H319.994C315.756 456 312.07 454.873 308.937 452.619L262.496 419.206H249.504L203.063 452.619C199.93 454.873 196.244 456 192.006 456H127.044Z" fill="#D3CEBB"/>
<path d="M307.356 56C312.247 56 316.323 57.4829 319.584 60.4487L380.722 112.787C384.187 115.579 385.919 119.068 385.919 123.255L385.919 398.295C385.919 402.656 383.372 404.837 378.277 404.837L291.766 404.837C286.671 404.837 284.124 402.656 284.124 398.295L284.124 131.106C284.124 127.617 282.086 125.872 278.01 125.872L227.876 125.872L227.876 398.295C227.876 402.656 225.329 404.837 220.234 404.837L133.723 404.837C128.628 404.837 126.081 402.656 126.081 398.295L126.081 62.5423C126.081 58.1807 128.628 56 133.723 56L307.356 56Z" fill="#AA594C"/>
<path d="M127.044 456C122.621 456 118.935 454.873 115.986 452.619L60.6994 412.842C57.5665 410.72 56 408.068 56 404.886V195.856C56 192.541 58.3036 190.884 62.9109 190.884H141.142C145.749 190.884 148.053 192.541 148.053 195.856V402.698H209.974V195.856C209.974 192.541 212.277 190.884 216.885 190.884H295.115C299.723 190.884 302.026 192.541 302.026 195.856V402.698H363.671V195.856C363.671 192.541 365.975 190.884 370.582 190.884H449.089C453.696 190.884 456 192.541 456 195.856V404.886C456 408.068 454.434 410.72 451.301 412.842L396.014 452.619C392.881 454.873 389.195 456 384.956 456H319.994C315.756 456 312.07 454.873 308.937 452.619L262.496 419.206H249.504L203.063 452.619C199.93 454.873 196.244 456 192.006 456H127.044Z" fill="#1A3138"/>
</g>
<defs>
<clipPath id="clip0_19_38">
<rect width="512" height="512" rx="50" fill="white"/>
</clipPath>
</defs>
</svg>
